<mxfile host="app.diagrams.net" agent="Mozilla/5.0 (Windows NT 10.0; Win64; x64; rv:135.0) Gecko/20100101 Firefox/135.0" version="26.1.2">
  <diagram name="Page-1" id="e3a06f82-3646-2815-327d-82caf3d4e204">
    <mxGraphModel dx="1027" dy="695" grid="1" gridSize="10" guides="1" tooltips="1" connect="1" arrows="1" fold="1" page="1" pageScale="1.5" pageWidth="1169" pageHeight="826" background="none" math="0" shadow="0">
      <root>
        <mxCell id="0" style=";html=1;" />
        <mxCell id="1" style=";html=1;" parent="0" />
        <mxCell id="L7qNaI3SkkEX6VafHR-W-15" value="" style="whiteSpace=wrap;html=1;aspect=fixed;movable=0;resizable=0;rotatable=0;deletable=0;editable=0;locked=1;connectable=0;" vertex="1" parent="1">
          <mxGeometry x="180" y="156" width="1034" height="1034" as="geometry" />
        </mxCell>
        <mxCell id="L7qNaI3SkkEX6VafHR-W-18" value="" style="rounded=0;whiteSpace=wrap;html=1;movable=0;resizable=0;rotatable=0;deletable=0;editable=0;locked=1;connectable=0;" vertex="1" parent="1">
          <mxGeometry x="220" y="240" width="420" height="130" as="geometry" />
        </mxCell>
        <mxCell id="L7qNaI3SkkEX6VafHR-W-20" value="" style="rounded=0;whiteSpace=wrap;html=1;" vertex="1" parent="1">
          <mxGeometry x="220" y="788" width="120" height="60" as="geometry" />
        </mxCell>
        <mxCell id="L7qNaI3SkkEX6VafHR-W-19" value="" style="rounded=0;whiteSpace=wrap;html=1;movable=0;resizable=0;rotatable=0;deletable=0;editable=0;locked=1;connectable=0;" vertex="1" parent="1">
          <mxGeometry x="220" y="410" width="420" height="340" as="geometry" />
        </mxCell>
        <mxCell id="6a7d8f32e03d9370-62" value="NR validation infra" style="text;strokeColor=none;fillColor=none;html=1;fontSize=24;fontStyle=1;verticalAlign=middle;align=center;" parent="1" vertex="1">
          <mxGeometry x="499" y="30" width="861" height="40" as="geometry" />
        </mxCell>
        <mxCell id="L7qNaI3SkkEX6VafHR-W-2" value="" style="sketch=0;pointerEvents=1;shadow=0;dashed=0;html=1;strokeColor=none;fillColor=#434445;aspect=fixed;labelPosition=center;verticalLabelPosition=bottom;verticalAlign=top;align=center;outlineConnect=0;shape=mxgraph.vvd.ssd;" vertex="1" parent="1">
          <mxGeometry x="1630" y="130" width="50" height="35.5" as="geometry" />
        </mxCell>
        <mxCell id="L7qNaI3SkkEX6VafHR-W-3" value="" style="sketch=0;pointerEvents=1;shadow=0;dashed=0;html=1;strokeColor=none;fillColor=#434445;aspect=fixed;labelPosition=center;verticalLabelPosition=bottom;verticalAlign=top;align=center;outlineConnect=0;shape=mxgraph.vvd.physical_network_adapter;" vertex="1" parent="1">
          <mxGeometry x="550" y="420" width="103.45" height="60" as="geometry" />
        </mxCell>
        <mxCell id="L7qNaI3SkkEX6VafHR-W-4" value="" style="sketch=0;pointerEvents=1;shadow=0;dashed=0;html=1;strokeColor=none;fillColor=#434445;aspect=fixed;labelPosition=center;verticalLabelPosition=bottom;verticalAlign=top;align=center;outlineConnect=0;shape=mxgraph.vvd.scsi_controller;" vertex="1" parent="1">
          <mxGeometry x="1422" y="70" width="50" height="22.5" as="geometry" />
        </mxCell>
        <mxCell id="L7qNaI3SkkEX6VafHR-W-48" style="edgeStyle=orthogonalEdgeStyle;rounded=0;orthogonalLoop=1;jettySize=auto;html=1;" edge="1" parent="1" source="L7qNaI3SkkEX6VafHR-W-5">
          <mxGeometry relative="1" as="geometry">
            <mxPoint x="550" y="429.5" as="targetPoint" />
          </mxGeometry>
        </mxCell>
        <mxCell id="L7qNaI3SkkEX6VafHR-W-5" value="" style="sketch=0;pointerEvents=1;shadow=0;dashed=0;html=1;strokeColor=none;fillColor=#434445;aspect=fixed;labelPosition=center;verticalLabelPosition=bottom;verticalAlign=top;align=center;outlineConnect=0;shape=mxgraph.vvd.memory;" vertex="1" parent="1">
          <mxGeometry x="434" y="420" width="50" height="19" as="geometry" />
        </mxCell>
        <mxCell id="L7qNaI3SkkEX6VafHR-W-6" value="" style="sketch=0;pointerEvents=1;shadow=0;dashed=0;html=1;strokeColor=none;fillColor=#434445;aspect=fixed;labelPosition=center;verticalLabelPosition=bottom;verticalAlign=top;align=center;outlineConnect=0;shape=mxgraph.vvd.disk;" vertex="1" parent="1">
          <mxGeometry x="1060" y="190" width="35" height="50" as="geometry" />
        </mxCell>
        <mxCell id="L7qNaI3SkkEX6VafHR-W-8" value="" style="sketch=0;pointerEvents=1;shadow=0;dashed=0;html=1;strokeColor=none;fillColor=#434445;aspect=fixed;labelPosition=center;verticalLabelPosition=bottom;verticalAlign=top;align=center;outlineConnect=0;shape=mxgraph.vvd.virtual_machine;" vertex="1" parent="1">
          <mxGeometry x="320" y="260" width="50" height="50" as="geometry" />
        </mxCell>
        <mxCell id="L7qNaI3SkkEX6VafHR-W-10" value="" style="sketch=0;pointerEvents=1;shadow=0;dashed=0;html=1;strokeColor=none;fillColor=#434445;aspect=fixed;labelPosition=center;verticalLabelPosition=bottom;verticalAlign=top;align=center;outlineConnect=0;shape=mxgraph.vvd.vpn;" vertex="1" parent="1">
          <mxGeometry x="1670" y="360" width="50" height="50" as="geometry" />
        </mxCell>
        <mxCell id="L7qNaI3SkkEX6VafHR-W-11" value="" style="sketch=0;pointerEvents=1;shadow=0;dashed=0;html=1;strokeColor=none;fillColor=#434445;aspect=fixed;labelPosition=center;verticalLabelPosition=bottom;verticalAlign=top;align=center;outlineConnect=0;shape=mxgraph.vvd.virtual_switch;" vertex="1" parent="1">
          <mxGeometry x="1650" y="517" width="50" height="26.5" as="geometry" />
        </mxCell>
        <mxCell id="L7qNaI3SkkEX6VafHR-W-12" value="" style="sketch=0;pointerEvents=1;shadow=0;dashed=0;html=1;strokeColor=none;fillColor=#434445;aspect=fixed;labelPosition=center;verticalLabelPosition=bottom;verticalAlign=top;align=center;outlineConnect=0;shape=mxgraph.vvd.switch;" vertex="1" parent="1">
          <mxGeometry x="1660" y="595" width="50" height="50" as="geometry" />
        </mxCell>
        <mxCell id="L7qNaI3SkkEX6VafHR-W-13" value="" style="sketch=0;pointerEvents=1;shadow=0;dashed=0;html=1;strokeColor=none;fillColor=#434445;aspect=fixed;labelPosition=center;verticalLabelPosition=bottom;verticalAlign=top;align=center;outlineConnect=0;shape=mxgraph.vvd.physical_upstream_router;" vertex="1" parent="1">
          <mxGeometry x="1660" y="738" width="50" height="50" as="geometry" />
        </mxCell>
        <mxCell id="L7qNaI3SkkEX6VafHR-W-14" value="" style="sketch=0;pointerEvents=1;shadow=0;dashed=0;html=1;strokeColor=none;fillColor=#434445;aspect=fixed;labelPosition=center;verticalLabelPosition=bottom;verticalAlign=top;align=center;outlineConnect=0;shape=mxgraph.vvd.external_networks;" vertex="1" parent="1">
          <mxGeometry x="1660" y="910" width="50" height="35" as="geometry" />
        </mxCell>
        <mxCell id="L7qNaI3SkkEX6VafHR-W-1" value="" style="sketch=0;pointerEvents=1;shadow=0;dashed=0;html=1;strokeColor=none;fillColor=#434445;aspect=fixed;labelPosition=center;verticalLabelPosition=bottom;verticalAlign=top;align=center;outlineConnect=0;shape=mxgraph.vvd.server;movable=0;resizable=0;rotatable=0;deletable=0;editable=0;locked=1;connectable=0;" vertex="1" parent="1">
          <mxGeometry x="220" y="208.8" width="120" height="31.2" as="geometry" />
        </mxCell>
        <mxCell id="L7qNaI3SkkEX6VafHR-W-7" value="" style="sketch=0;pointerEvents=1;shadow=0;dashed=0;html=1;strokeColor=none;fillColor=#434445;aspect=fixed;labelPosition=center;verticalLabelPosition=bottom;verticalAlign=top;align=center;outlineConnect=0;shape=mxgraph.vvd.datacenter;movable=0;resizable=0;rotatable=0;deletable=0;editable=0;locked=1;connectable=0;" vertex="1" parent="1">
          <mxGeometry x="180" y="92.5" width="81.08" height="60" as="geometry" />
        </mxCell>
        <mxCell id="L7qNaI3SkkEX6VafHR-W-17" value="NR DC" style="text;html=1;align=center;verticalAlign=middle;whiteSpace=wrap;rounded=0;" vertex="1" parent="1">
          <mxGeometry x="240" y="122.5" width="120" height="30" as="geometry" />
        </mxCell>
        <mxCell id="L7qNaI3SkkEX6VafHR-W-9" value="" style="sketch=0;pointerEvents=1;shadow=0;dashed=0;html=1;strokeColor=none;fillColor=#434445;aspect=fixed;labelPosition=center;verticalLabelPosition=bottom;verticalAlign=top;align=center;outlineConnect=0;shape=mxgraph.vvd.vm_group;" vertex="1" parent="1">
          <mxGeometry x="240" y="260" width="49.5" height="50" as="geometry" />
        </mxCell>
        <mxCell id="L7qNaI3SkkEX6VafHR-W-21" value="Dev VMs" style="text;html=1;align=center;verticalAlign=middle;whiteSpace=wrap;rounded=0;" vertex="1" parent="1">
          <mxGeometry x="234.75" y="320" width="60" height="30" as="geometry" />
        </mxCell>
        <mxCell id="L7qNaI3SkkEX6VafHR-W-22" value="Shared VM" style="text;html=1;align=center;verticalAlign=middle;whiteSpace=wrap;rounded=0;" vertex="1" parent="1">
          <mxGeometry x="310" y="320" width="70" height="30" as="geometry" />
        </mxCell>
        <mxCell id="L7qNaI3SkkEX6VafHR-W-23" value="" style="sketch=0;pointerEvents=1;shadow=0;dashed=0;html=1;strokeColor=none;fillColor=#434445;aspect=fixed;labelPosition=center;verticalLabelPosition=bottom;verticalAlign=top;align=center;outlineConnect=0;shape=mxgraph.vvd.vm_group;" vertex="1" parent="1">
          <mxGeometry x="400" y="260" width="49.5" height="50" as="geometry" />
        </mxCell>
        <mxCell id="L7qNaI3SkkEX6VafHR-W-24" value="CI VMs" style="text;html=1;align=center;verticalAlign=middle;whiteSpace=wrap;rounded=0;" vertex="1" parent="1">
          <mxGeometry x="394.75" y="320" width="60" height="30" as="geometry" />
        </mxCell>
        <mxCell id="L7qNaI3SkkEX6VafHR-W-25" value="https://pcloud.int.neureality.ai" style="text;html=1;align=center;verticalAlign=middle;whiteSpace=wrap;rounded=0;" vertex="1" parent="1">
          <mxGeometry x="340" y="210" width="170" height="30" as="geometry" />
        </mxCell>
        <mxCell id="L7qNaI3SkkEX6VafHR-W-26" value="" style="sketch=0;pointerEvents=1;shadow=0;dashed=0;html=1;strokeColor=none;fillColor=#434445;aspect=fixed;labelPosition=center;verticalLabelPosition=bottom;verticalAlign=top;align=center;outlineConnect=0;shape=mxgraph.vvd.server;movable=0;resizable=0;rotatable=0;deletable=0;editable=0;locked=1;connectable=0;" vertex="1" parent="1">
          <mxGeometry x="220" y="378.8" width="120" height="31.2" as="geometry" />
        </mxCell>
        <mxCell id="L7qNaI3SkkEX6VafHR-W-27" value="NR1S4" style="text;html=1;align=center;verticalAlign=middle;whiteSpace=wrap;rounded=0;" vertex="1" parent="1">
          <mxGeometry x="340" y="380" width="60" height="30" as="geometry" />
        </mxCell>
        <mxCell id="L7qNaI3SkkEX6VafHR-W-28" value="172.23.8.247/24" style="text;html=1;align=center;verticalAlign=middle;whiteSpace=wrap;rounded=0;" vertex="1" parent="1">
          <mxGeometry x="220" y="340" width="160" height="30" as="geometry" />
        </mxCell>
        <mxCell id="L7qNaI3SkkEX6VafHR-W-29" value="" style="sketch=0;pointerEvents=1;shadow=0;dashed=0;html=1;strokeColor=none;fillColor=#434445;aspect=fixed;labelPosition=center;verticalLabelPosition=bottom;verticalAlign=top;align=center;outlineConnect=0;shape=mxgraph.vvd.scsi_controller;" vertex="1" parent="1">
          <mxGeometry x="1422" y="146" width="50" height="22.5" as="geometry" />
        </mxCell>
        <mxCell id="L7qNaI3SkkEX6VafHR-W-35" value="" style="sketch=0;pointerEvents=1;shadow=0;dashed=0;html=1;strokeColor=none;fillColor=#434445;aspect=fixed;labelPosition=center;verticalLabelPosition=bottom;verticalAlign=top;align=center;outlineConnect=0;shape=mxgraph.vvd.physical_network_adapter;" vertex="1" parent="1">
          <mxGeometry x="550" y="630" width="103.45" height="60" as="geometry" />
        </mxCell>
        <mxCell id="L7qNaI3SkkEX6VafHR-W-40" value="" style="sketch=0;pointerEvents=1;shadow=0;dashed=0;html=1;strokeColor=none;fillColor=#434445;aspect=fixed;labelPosition=center;verticalLabelPosition=bottom;verticalAlign=top;align=center;outlineConnect=0;shape=mxgraph.vvd.physical_network_adapter;" vertex="1" parent="1">
          <mxGeometry x="550" y="490" width="103.45" height="60" as="geometry" />
        </mxCell>
        <mxCell id="L7qNaI3SkkEX6VafHR-W-41" value="" style="sketch=0;pointerEvents=1;shadow=0;dashed=0;html=1;strokeColor=none;fillColor=#434445;aspect=fixed;labelPosition=center;verticalLabelPosition=bottom;verticalAlign=top;align=center;outlineConnect=0;shape=mxgraph.vvd.physical_network_adapter;" vertex="1" parent="1">
          <mxGeometry x="550" y="560" width="103.45" height="60" as="geometry" />
        </mxCell>
        <mxCell id="L7qNaI3SkkEX6VafHR-W-67" style="edgeStyle=orthogonalEdgeStyle;rounded=0;orthogonalLoop=1;jettySize=auto;html=1;" edge="1" parent="1" source="L7qNaI3SkkEX6VafHR-W-42">
          <mxGeometry relative="1" as="geometry">
            <mxPoint x="550" y="499.5000000000001" as="targetPoint" />
          </mxGeometry>
        </mxCell>
        <mxCell id="L7qNaI3SkkEX6VafHR-W-42" value="" style="sketch=0;pointerEvents=1;shadow=0;dashed=0;html=1;strokeColor=none;fillColor=#434445;aspect=fixed;labelPosition=center;verticalLabelPosition=bottom;verticalAlign=top;align=center;outlineConnect=0;shape=mxgraph.vvd.memory;" vertex="1" parent="1">
          <mxGeometry x="434" y="490" width="50" height="19" as="geometry" />
        </mxCell>
        <mxCell id="L7qNaI3SkkEX6VafHR-W-128" style="edgeStyle=orthogonalEdgeStyle;rounded=0;orthogonalLoop=1;jettySize=auto;html=1;" edge="1" parent="1" source="L7qNaI3SkkEX6VafHR-W-43">
          <mxGeometry relative="1" as="geometry">
            <mxPoint x="550" y="480" as="targetPoint" />
            <Array as="points">
              <mxPoint x="500" y="480" />
              <mxPoint x="500" y="480" />
            </Array>
          </mxGeometry>
        </mxCell>
        <mxCell id="L7qNaI3SkkEX6VafHR-W-43" value="" style="sketch=0;pointerEvents=1;shadow=0;dashed=0;html=1;strokeColor=none;fillColor=#434445;aspect=fixed;labelPosition=center;verticalLabelPosition=bottom;verticalAlign=top;align=center;outlineConnect=0;shape=mxgraph.vvd.memory;" vertex="1" parent="1">
          <mxGeometry x="434" y="461" width="50" height="19" as="geometry" />
        </mxCell>
        <mxCell id="L7qNaI3SkkEX6VafHR-W-89" style="edgeStyle=orthogonalEdgeStyle;rounded=0;orthogonalLoop=1;jettySize=auto;html=1;" edge="1" parent="1" source="L7qNaI3SkkEX6VafHR-W-44">
          <mxGeometry relative="1" as="geometry">
            <mxPoint x="550" y="440" as="targetPoint" />
            <Array as="points">
              <mxPoint x="435" y="440" />
            </Array>
          </mxGeometry>
        </mxCell>
        <mxCell id="L7qNaI3SkkEX6VafHR-W-44" value="" style="sketch=0;pointerEvents=1;shadow=0;dashed=0;html=1;strokeColor=none;fillColor=#434445;aspect=fixed;labelPosition=center;verticalLabelPosition=bottom;verticalAlign=top;align=center;outlineConnect=0;shape=mxgraph.vvd.memory;" vertex="1" parent="1">
          <mxGeometry x="364" y="420" width="50" height="19" as="geometry" />
        </mxCell>
        <mxCell id="L7qNaI3SkkEX6VafHR-W-129" style="edgeStyle=orthogonalEdgeStyle;rounded=0;orthogonalLoop=1;jettySize=auto;html=1;" edge="1" parent="1" source="L7qNaI3SkkEX6VafHR-W-45" target="L7qNaI3SkkEX6VafHR-W-3">
          <mxGeometry relative="1" as="geometry">
            <Array as="points">
              <mxPoint x="389" y="450" />
            </Array>
          </mxGeometry>
        </mxCell>
        <mxCell id="L7qNaI3SkkEX6VafHR-W-45" value="" style="sketch=0;pointerEvents=1;shadow=0;dashed=0;html=1;strokeColor=none;fillColor=#434445;aspect=fixed;labelPosition=center;verticalLabelPosition=bottom;verticalAlign=top;align=center;outlineConnect=0;shape=mxgraph.vvd.memory;" vertex="1" parent="1">
          <mxGeometry x="364" y="461" width="50" height="19" as="geometry" />
        </mxCell>
        <mxCell id="L7qNaI3SkkEX6VafHR-W-126" style="edgeStyle=orthogonalEdgeStyle;rounded=0;orthogonalLoop=1;jettySize=auto;html=1;" edge="1" parent="1" source="L7qNaI3SkkEX6VafHR-W-56" target="L7qNaI3SkkEX6VafHR-W-40">
          <mxGeometry relative="1" as="geometry">
            <Array as="points">
              <mxPoint x="389" y="520" />
            </Array>
          </mxGeometry>
        </mxCell>
        <mxCell id="L7qNaI3SkkEX6VafHR-W-56" value="" style="sketch=0;pointerEvents=1;shadow=0;dashed=0;html=1;strokeColor=none;fillColor=#434445;aspect=fixed;labelPosition=center;verticalLabelPosition=bottom;verticalAlign=top;align=center;outlineConnect=0;shape=mxgraph.vvd.memory;" vertex="1" parent="1">
          <mxGeometry x="364" y="531" width="50" height="19" as="geometry" />
        </mxCell>
        <mxCell id="L7qNaI3SkkEX6VafHR-W-124" style="edgeStyle=orthogonalEdgeStyle;rounded=0;orthogonalLoop=1;jettySize=auto;html=1;" edge="1" parent="1" source="L7qNaI3SkkEX6VafHR-W-57">
          <mxGeometry relative="1" as="geometry">
            <mxPoint x="550" y="550" as="targetPoint" />
            <Array as="points">
              <mxPoint x="500" y="550" />
              <mxPoint x="500" y="550" />
            </Array>
          </mxGeometry>
        </mxCell>
        <mxCell id="L7qNaI3SkkEX6VafHR-W-57" value="" style="sketch=0;pointerEvents=1;shadow=0;dashed=0;html=1;strokeColor=none;fillColor=#434445;aspect=fixed;labelPosition=center;verticalLabelPosition=bottom;verticalAlign=top;align=center;outlineConnect=0;shape=mxgraph.vvd.memory;" vertex="1" parent="1">
          <mxGeometry x="434" y="531" width="50" height="19" as="geometry" />
        </mxCell>
        <mxCell id="L7qNaI3SkkEX6VafHR-W-74" style="edgeStyle=orthogonalEdgeStyle;rounded=0;orthogonalLoop=1;jettySize=auto;html=1;" edge="1" parent="1" source="L7qNaI3SkkEX6VafHR-W-58">
          <mxGeometry relative="1" as="geometry">
            <mxPoint x="550" y="510.0000000000001" as="targetPoint" />
            <Array as="points">
              <mxPoint x="480" y="510" />
              <mxPoint x="480" y="510" />
            </Array>
          </mxGeometry>
        </mxCell>
        <mxCell id="L7qNaI3SkkEX6VafHR-W-58" value="" style="sketch=0;pointerEvents=1;shadow=0;dashed=0;html=1;strokeColor=none;fillColor=#434445;aspect=fixed;labelPosition=center;verticalLabelPosition=bottom;verticalAlign=top;align=center;outlineConnect=0;shape=mxgraph.vvd.memory;" vertex="1" parent="1">
          <mxGeometry x="364" y="491" width="50" height="19" as="geometry" />
        </mxCell>
        <mxCell id="L7qNaI3SkkEX6VafHR-W-59" value="" style="sketch=0;pointerEvents=1;shadow=0;dashed=0;html=1;strokeColor=none;fillColor=#434445;aspect=fixed;labelPosition=center;verticalLabelPosition=bottom;verticalAlign=top;align=center;outlineConnect=0;shape=mxgraph.vvd.memory;" vertex="1" parent="1">
          <mxGeometry x="434" y="560" width="50" height="19" as="geometry" />
        </mxCell>
        <mxCell id="L7qNaI3SkkEX6VafHR-W-119" style="edgeStyle=orthogonalEdgeStyle;rounded=0;orthogonalLoop=1;jettySize=auto;html=1;" edge="1" parent="1" source="L7qNaI3SkkEX6VafHR-W-60" target="L7qNaI3SkkEX6VafHR-W-41">
          <mxGeometry relative="1" as="geometry">
            <Array as="points">
              <mxPoint x="389" y="590" />
            </Array>
          </mxGeometry>
        </mxCell>
        <mxCell id="L7qNaI3SkkEX6VafHR-W-60" value="" style="sketch=0;pointerEvents=1;shadow=0;dashed=0;html=1;strokeColor=none;fillColor=#434445;aspect=fixed;labelPosition=center;verticalLabelPosition=bottom;verticalAlign=top;align=center;outlineConnect=0;shape=mxgraph.vvd.memory;" vertex="1" parent="1">
          <mxGeometry x="364" y="601" width="50" height="19" as="geometry" />
        </mxCell>
        <mxCell id="L7qNaI3SkkEX6VafHR-W-120" style="edgeStyle=orthogonalEdgeStyle;rounded=0;orthogonalLoop=1;jettySize=auto;html=1;" edge="1" parent="1" source="L7qNaI3SkkEX6VafHR-W-61">
          <mxGeometry relative="1" as="geometry">
            <mxPoint x="550" y="620" as="targetPoint" />
            <Array as="points">
              <mxPoint x="500" y="620" />
              <mxPoint x="500" y="620" />
            </Array>
          </mxGeometry>
        </mxCell>
        <mxCell id="L7qNaI3SkkEX6VafHR-W-61" value="" style="sketch=0;pointerEvents=1;shadow=0;dashed=0;html=1;strokeColor=none;fillColor=#434445;aspect=fixed;labelPosition=center;verticalLabelPosition=bottom;verticalAlign=top;align=center;outlineConnect=0;shape=mxgraph.vvd.memory;" vertex="1" parent="1">
          <mxGeometry x="434" y="601" width="50" height="19" as="geometry" />
        </mxCell>
        <mxCell id="L7qNaI3SkkEX6VafHR-W-86" style="edgeStyle=orthogonalEdgeStyle;rounded=0;orthogonalLoop=1;jettySize=auto;html=1;" edge="1" parent="1" source="L7qNaI3SkkEX6VafHR-W-62" target="L7qNaI3SkkEX6VafHR-W-41">
          <mxGeometry relative="1" as="geometry">
            <Array as="points">
              <mxPoint x="490" y="580" />
              <mxPoint x="490" y="580" />
            </Array>
          </mxGeometry>
        </mxCell>
        <mxCell id="L7qNaI3SkkEX6VafHR-W-62" value="" style="sketch=0;pointerEvents=1;shadow=0;dashed=0;html=1;strokeColor=none;fillColor=#434445;aspect=fixed;labelPosition=center;verticalLabelPosition=bottom;verticalAlign=top;align=center;outlineConnect=0;shape=mxgraph.vvd.memory;" vertex="1" parent="1">
          <mxGeometry x="364" y="561" width="50" height="19" as="geometry" />
        </mxCell>
        <mxCell id="L7qNaI3SkkEX6VafHR-W-90" style="edgeStyle=orthogonalEdgeStyle;rounded=0;orthogonalLoop=1;jettySize=auto;html=1;" edge="1" parent="1" source="L7qNaI3SkkEX6VafHR-W-63">
          <mxGeometry relative="1" as="geometry">
            <mxPoint x="550" y="639.5" as="targetPoint" />
          </mxGeometry>
        </mxCell>
        <mxCell id="L7qNaI3SkkEX6VafHR-W-63" value="" style="sketch=0;pointerEvents=1;shadow=0;dashed=0;html=1;strokeColor=none;fillColor=#434445;aspect=fixed;labelPosition=center;verticalLabelPosition=bottom;verticalAlign=top;align=center;outlineConnect=0;shape=mxgraph.vvd.memory;" vertex="1" parent="1">
          <mxGeometry x="434" y="630" width="50" height="19" as="geometry" />
        </mxCell>
        <mxCell id="L7qNaI3SkkEX6VafHR-W-118" style="edgeStyle=orthogonalEdgeStyle;rounded=0;orthogonalLoop=1;jettySize=auto;html=1;" edge="1" parent="1" source="L7qNaI3SkkEX6VafHR-W-64" target="L7qNaI3SkkEX6VafHR-W-35">
          <mxGeometry relative="1" as="geometry">
            <Array as="points">
              <mxPoint x="389" y="660" />
            </Array>
          </mxGeometry>
        </mxCell>
        <mxCell id="L7qNaI3SkkEX6VafHR-W-64" value="" style="sketch=0;pointerEvents=1;shadow=0;dashed=0;html=1;strokeColor=none;fillColor=#434445;aspect=fixed;labelPosition=center;verticalLabelPosition=bottom;verticalAlign=top;align=center;outlineConnect=0;shape=mxgraph.vvd.memory;" vertex="1" parent="1">
          <mxGeometry x="364" y="671" width="50" height="19" as="geometry" />
        </mxCell>
        <mxCell id="L7qNaI3SkkEX6VafHR-W-121" style="edgeStyle=orthogonalEdgeStyle;rounded=0;orthogonalLoop=1;jettySize=auto;html=1;" edge="1" parent="1" source="L7qNaI3SkkEX6VafHR-W-65">
          <mxGeometry relative="1" as="geometry">
            <mxPoint x="550" y="690" as="targetPoint" />
            <Array as="points">
              <mxPoint x="500" y="690" />
              <mxPoint x="500" y="690" />
            </Array>
          </mxGeometry>
        </mxCell>
        <mxCell id="L7qNaI3SkkEX6VafHR-W-65" value="" style="sketch=0;pointerEvents=1;shadow=0;dashed=0;html=1;strokeColor=none;fillColor=#434445;aspect=fixed;labelPosition=center;verticalLabelPosition=bottom;verticalAlign=top;align=center;outlineConnect=0;shape=mxgraph.vvd.memory;" vertex="1" parent="1">
          <mxGeometry x="434" y="671" width="50" height="19" as="geometry" />
        </mxCell>
        <mxCell id="L7qNaI3SkkEX6VafHR-W-93" style="edgeStyle=orthogonalEdgeStyle;rounded=0;orthogonalLoop=1;jettySize=auto;html=1;" edge="1" parent="1" source="L7qNaI3SkkEX6VafHR-W-66">
          <mxGeometry relative="1" as="geometry">
            <mxPoint x="550" y="650" as="targetPoint" />
            <Array as="points">
              <mxPoint x="505" y="650" />
              <mxPoint x="505" y="651" />
              <mxPoint x="550" y="651" />
            </Array>
          </mxGeometry>
        </mxCell>
        <mxCell id="L7qNaI3SkkEX6VafHR-W-66" value="" style="sketch=0;pointerEvents=1;shadow=0;dashed=0;html=1;strokeColor=none;fillColor=#434445;aspect=fixed;labelPosition=center;verticalLabelPosition=bottom;verticalAlign=top;align=center;outlineConnect=0;shape=mxgraph.vvd.memory;" vertex="1" parent="1">
          <mxGeometry x="364" y="631" width="50" height="19" as="geometry" />
        </mxCell>
        <mxCell id="L7qNaI3SkkEX6VafHR-W-77" style="edgeStyle=orthogonalEdgeStyle;rounded=0;orthogonalLoop=1;jettySize=auto;html=1;entryX=0;entryY=0.158;entryDx=0;entryDy=0;entryPerimeter=0;" edge="1" parent="1" source="L7qNaI3SkkEX6VafHR-W-59" target="L7qNaI3SkkEX6VafHR-W-41">
          <mxGeometry relative="1" as="geometry" />
        </mxCell>
        <mxCell id="L7qNaI3SkkEX6VafHR-W-94" value="&lt;font style=&quot;font-size: 8px;&quot;&gt;AI100Ultra&lt;/font&gt;" style="text;html=1;align=center;verticalAlign=middle;whiteSpace=wrap;rounded=0;" vertex="1" parent="1">
          <mxGeometry x="364" y="439" width="50" height="9" as="geometry" />
        </mxCell>
        <mxCell id="L7qNaI3SkkEX6VafHR-W-95" value="&lt;font style=&quot;font-size: 8px;&quot;&gt;AI100Ultra&lt;/font&gt;" style="text;html=1;align=center;verticalAlign=middle;whiteSpace=wrap;rounded=0;" vertex="1" parent="1">
          <mxGeometry x="434" y="439" width="50" height="9" as="geometry" />
        </mxCell>
        <mxCell id="L7qNaI3SkkEX6VafHR-W-96" value="&lt;font style=&quot;font-size: 8px;&quot;&gt;AI100Ultra&lt;/font&gt;" style="text;html=1;align=center;verticalAlign=middle;whiteSpace=wrap;rounded=0;" vertex="1" parent="1">
          <mxGeometry x="364" y="480" width="50" height="9" as="geometry" />
        </mxCell>
        <mxCell id="L7qNaI3SkkEX6VafHR-W-97" value="&lt;font style=&quot;font-size: 8px;&quot;&gt;AI100Ultra&lt;/font&gt;" style="text;html=1;align=center;verticalAlign=middle;whiteSpace=wrap;rounded=0;" vertex="1" parent="1">
          <mxGeometry x="434" y="480" width="50" height="9" as="geometry" />
        </mxCell>
        <mxCell id="L7qNaI3SkkEX6VafHR-W-98" value="&lt;font style=&quot;font-size: 8px;&quot;&gt;AI100Ultra&lt;/font&gt;" style="text;html=1;align=center;verticalAlign=middle;whiteSpace=wrap;rounded=0;" vertex="1" parent="1">
          <mxGeometry x="364" y="510" width="50" height="9" as="geometry" />
        </mxCell>
        <mxCell id="L7qNaI3SkkEX6VafHR-W-99" value="&lt;font style=&quot;font-size: 8px;&quot;&gt;AI100Ultra&lt;/font&gt;" style="text;html=1;align=center;verticalAlign=middle;whiteSpace=wrap;rounded=0;" vertex="1" parent="1">
          <mxGeometry x="434" y="510" width="50" height="9" as="geometry" />
        </mxCell>
        <mxCell id="L7qNaI3SkkEX6VafHR-W-100" value="&lt;font style=&quot;font-size: 8px;&quot;&gt;AI100Ultra&lt;/font&gt;" style="text;html=1;align=center;verticalAlign=middle;whiteSpace=wrap;rounded=0;" vertex="1" parent="1">
          <mxGeometry x="364" y="550" width="50" height="9" as="geometry" />
        </mxCell>
        <mxCell id="L7qNaI3SkkEX6VafHR-W-101" value="&lt;font style=&quot;font-size: 8px;&quot;&gt;AI100Ultra&lt;/font&gt;" style="text;html=1;align=center;verticalAlign=middle;whiteSpace=wrap;rounded=0;" vertex="1" parent="1">
          <mxGeometry x="434" y="550" width="50" height="9" as="geometry" />
        </mxCell>
        <mxCell id="L7qNaI3SkkEX6VafHR-W-102" value="&lt;font style=&quot;font-size: 8px;&quot;&gt;AI100Ultra&lt;/font&gt;" style="text;html=1;align=center;verticalAlign=middle;whiteSpace=wrap;rounded=0;" vertex="1" parent="1">
          <mxGeometry x="364" y="580" width="50" height="9" as="geometry" />
        </mxCell>
        <mxCell id="L7qNaI3SkkEX6VafHR-W-103" value="&lt;font style=&quot;font-size: 8px;&quot;&gt;AI100Ultra&lt;/font&gt;" style="text;html=1;align=center;verticalAlign=middle;whiteSpace=wrap;rounded=0;" vertex="1" parent="1">
          <mxGeometry x="434" y="580" width="50" height="9" as="geometry" />
        </mxCell>
        <mxCell id="L7qNaI3SkkEX6VafHR-W-104" value="&lt;font style=&quot;font-size: 8px;&quot;&gt;AI100Ultra&lt;/font&gt;" style="text;html=1;align=center;verticalAlign=middle;whiteSpace=wrap;rounded=0;" vertex="1" parent="1">
          <mxGeometry x="364" y="620" width="50" height="9" as="geometry" />
        </mxCell>
        <mxCell id="L7qNaI3SkkEX6VafHR-W-105" value="&lt;font style=&quot;font-size: 8px;&quot;&gt;AI100Ultra&lt;/font&gt;" style="text;html=1;align=center;verticalAlign=middle;whiteSpace=wrap;rounded=0;" vertex="1" parent="1">
          <mxGeometry x="434" y="620" width="50" height="9" as="geometry" />
        </mxCell>
        <mxCell id="L7qNaI3SkkEX6VafHR-W-106" value="&lt;font style=&quot;font-size: 8px;&quot;&gt;AI100Ultra&lt;/font&gt;" style="text;html=1;align=center;verticalAlign=middle;whiteSpace=wrap;rounded=0;" vertex="1" parent="1">
          <mxGeometry x="364" y="650" width="50" height="9" as="geometry" />
        </mxCell>
        <mxCell id="L7qNaI3SkkEX6VafHR-W-107" value="&lt;font style=&quot;font-size: 8px;&quot;&gt;AI100Ultra&lt;/font&gt;" style="text;html=1;align=center;verticalAlign=middle;whiteSpace=wrap;rounded=0;" vertex="1" parent="1">
          <mxGeometry x="434" y="650" width="50" height="9" as="geometry" />
        </mxCell>
        <mxCell id="L7qNaI3SkkEX6VafHR-W-108" value="&lt;font style=&quot;font-size: 8px;&quot;&gt;AI100Ultra&lt;/font&gt;" style="text;html=1;align=center;verticalAlign=middle;whiteSpace=wrap;rounded=0;" vertex="1" parent="1">
          <mxGeometry x="364" y="691" width="50" height="9" as="geometry" />
        </mxCell>
        <mxCell id="L7qNaI3SkkEX6VafHR-W-109" value="&lt;font style=&quot;font-size: 8px;&quot;&gt;AI100Ultra&lt;/font&gt;" style="text;html=1;align=center;verticalAlign=middle;whiteSpace=wrap;rounded=0;" vertex="1" parent="1">
          <mxGeometry x="434" y="690" width="50" height="9" as="geometry" />
        </mxCell>
        <mxCell id="L7qNaI3SkkEX6VafHR-W-110" value="&lt;font style=&quot;font-size: 8px;&quot;&gt;NR1S4-1(NR1M-315)&lt;/font&gt;" style="text;html=1;align=center;verticalAlign=middle;whiteSpace=wrap;rounded=0;" vertex="1" parent="1">
          <mxGeometry x="550" y="481" width="90" height="9" as="geometry" />
        </mxCell>
        <mxCell id="L7qNaI3SkkEX6VafHR-W-111" value="&lt;font style=&quot;font-size: 8px;&quot;&gt;NR1S4-3(NR1M-2FA)&lt;/font&gt;" style="text;html=1;align=center;verticalAlign=middle;whiteSpace=wrap;rounded=0;" vertex="1" parent="1">
          <mxGeometry x="550" y="550" width="90" height="9" as="geometry" />
        </mxCell>
        <mxCell id="L7qNaI3SkkEX6VafHR-W-112" value="&lt;font style=&quot;font-size: 8px;&quot;&gt;NR1S4-7(NR1M-306)&lt;/font&gt;" style="text;html=1;align=center;verticalAlign=middle;whiteSpace=wrap;rounded=0;" vertex="1" parent="1">
          <mxGeometry x="550" y="620" width="90" height="9" as="geometry" />
        </mxCell>
        <mxCell id="L7qNaI3SkkEX6VafHR-W-113" value="&lt;font style=&quot;font-size: 8px;&quot;&gt;NR1S4-9(NR1M-312)&lt;/font&gt;" style="text;html=1;align=center;verticalAlign=middle;whiteSpace=wrap;rounded=0;" vertex="1" parent="1">
          <mxGeometry x="550" y="691" width="90" height="9" as="geometry" />
        </mxCell>
        <mxCell id="L7qNaI3SkkEX6VafHR-W-114" value="" style="sketch=0;pointerEvents=1;shadow=0;dashed=0;html=1;strokeColor=none;fillColor=#434445;aspect=fixed;labelPosition=center;verticalLabelPosition=bottom;verticalAlign=top;align=center;outlineConnect=0;shape=mxgraph.vvd.ssd;direction=east;" vertex="1" parent="1">
          <mxGeometry x="520" y="662.35" width="30" height="21.3" as="geometry" />
        </mxCell>
        <mxCell id="L7qNaI3SkkEX6VafHR-W-123" value="" style="sketch=0;pointerEvents=1;shadow=0;dashed=0;html=1;strokeColor=none;fillColor=#434445;aspect=fixed;labelPosition=center;verticalLabelPosition=bottom;verticalAlign=top;align=center;outlineConnect=0;shape=mxgraph.vvd.ssd;direction=east;" vertex="1" parent="1">
          <mxGeometry x="520" y="595" width="30" height="21.3" as="geometry" />
        </mxCell>
        <mxCell id="L7qNaI3SkkEX6VafHR-W-127" value="" style="sketch=0;pointerEvents=1;shadow=0;dashed=0;html=1;strokeColor=none;fillColor=#434445;aspect=fixed;labelPosition=center;verticalLabelPosition=bottom;verticalAlign=top;align=center;outlineConnect=0;shape=mxgraph.vvd.ssd;direction=east;" vertex="1" parent="1">
          <mxGeometry x="520" y="522.2" width="30" height="21.3" as="geometry" />
        </mxCell>
        <mxCell id="L7qNaI3SkkEX6VafHR-W-130" value="" style="sketch=0;pointerEvents=1;shadow=0;dashed=0;html=1;strokeColor=none;fillColor=#434445;aspect=fixed;labelPosition=center;verticalLabelPosition=bottom;verticalAlign=top;align=center;outlineConnect=0;shape=mxgraph.vvd.ssd;direction=east;" vertex="1" parent="1">
          <mxGeometry x="520" y="450.00000000000006" width="30" height="21.3" as="geometry" />
        </mxCell>
      </root>
    </mxGraphModel>
  </diagram>
</mxfile>
